<svg width="242" height="280" viewBox="0 0 242 280" fill="none" xmlns="http://www.w3.org/2000/svg">
<g clip-path="url(#clip0)">
<path d="M231.315 62.1381C245.564 47.923 245.564 24.8757 231.315 10.6606C217.066 -3.55451 193.963 -3.5545 179.714 10.6606C165.465 24.8757 165.465 47.923 179.714 62.1381C193.963 76.3533 217.066 76.3533 231.315 62.1381Z" fill="#E2E0FF"/>
<path d="M199.636 35.122H228.689C232.608 35.122 234.207 30.0198 230.939 27.8712L230.787 27.7756C229.697 27.0474 228.415 26.6586 227.103 26.6586C225.791 26.6586 224.508 27.0474 223.418 27.7756C223.418 27.7756 220.261 20.0065 211.212 19.3775C202.163 18.7485 198.602 24.6257 197.533 27.2523C196.948 27.1753 196.357 27.1568 195.768 27.1969C190.658 27.4686 190.931 35.122 196.05 35.122H199.636Z" fill="#FFEAE8"/>
<path d="M130.283 184.823C130.283 184.823 166.952 189.483 185.841 205.846L148.809 231.881L85.0547 225.933C85.0547 225.933 101.816 184.879 130.283 184.823Z" fill="#0B2E77"/>
<path d="M129.673 186.509C129.673 186.509 118.98 210.309 87.1683 230.145C68.7077 241.663 43.3774 242.312 25.3809 240.837C19.3259 240.339 13.6803 237.587 9.56448 233.129C5.44865 228.67 3.16351 222.831 3.1626 216.77V128.21H17.578C17.3308 140.855 30.2532 162.185 32.2456 176.073C34.2379 189.961 26.5258 206.314 26.5258 206.314C43.1706 203.34 65.2981 188.466 65.2981 188.466C68.0319 173.341 85.0549 167.142 85.0549 167.142L102.33 174.634L129.673 186.509Z" fill="#0F3C9C"/>
<path d="M95.415 78.8434C94.9841 79.9638 94.4076 81.0229 93.7 81.9933C87.5314 90.5474 72.5158 91.6393 62.7054 83.6136C53.4247 76.0055 55.982 65.3632 56.2695 64.2965C56.2695 64.2713 56.2695 64.2361 56.2695 64.2109C55.9467 56.2959 62.0296 44.5869 74.0945 41.3363C86.1595 38.0858 91.3799 45.2209 91.3799 45.2209C88.8579 44.451 80.0715 48.1645 81.7965 56.4066C83.5215 64.6487 91.8842 66.4702 91.8842 66.4702C91.8842 66.4702 97.9974 71.7838 95.415 78.8434Z" fill="#303030"/>
<path d="M95.415 78.8434C94.9841 79.9638 94.4076 81.0228 93.7 81.9933C87.5314 90.5474 72.5158 91.6393 62.7054 83.6136C53.4247 76.0055 55.982 65.3632 56.2695 64.2964C56.2695 64.2713 56.2695 64.2361 56.2695 64.2109C56.2695 64.1857 56.4208 70.1283 62.6651 76.5388C68.9094 82.9494 73.7616 82.6223 73.7616 82.6223C73.7616 82.6223 69.096 80.6398 68.0721 77.2886C68.0721 77.2886 71.9004 81.002 79.1686 80.5441C86.4369 80.0862 91.8792 72.5385 91.8792 72.5385L95.415 78.8434Z" fill="black"/>
<path d="M105.644 62.8775C105.644 62.8775 107.541 75.7841 113.079 81.9631L94.008 86.1898C94.008 86.1898 94.1189 76.4332 89.6602 71.7184C89.6602 71.6932 102.119 60.6836 105.644 62.8775Z" fill="#EDAD91"/>
<path d="M66.2969 54.4542C66.2969 54.4542 70.7506 45.6737 78.4677 44.3906C86.1849 43.1075 88.6816 46.0159 93.0294 45.0397C97.3772 44.0635 98.4617 41.8999 98.4617 41.8999C99.4484 43.2218 100.017 44.8073 100.096 46.4536C100.096 46.4536 105.2 49.7042 109.331 52.2C109.331 52.2 107.591 62.8221 102.048 67.3759C96.5046 71.9297 89.6601 71.7133 89.6601 71.7133C89.6601 71.7133 87.2693 75.8344 80.6416 74.7324C74.014 73.6304 73.6861 69.6352 74.1199 68.0099C74.5537 66.3847 79.991 64.4323 83.4662 65.3028C83.4864 65.2978 83.0324 53.4781 66.2969 54.4542Z" fill="#FFC8A8"/>
<path d="M57.258 63.8033C56.7816 62.7997 56.0148 61.9614 55.0565 61.3964C54.0982 60.8314 52.9923 60.5656 51.8812 60.6333C47.8865 60.7943 45.4402 65.5946 47.0694 72.1008C48.6985 78.6069 55.9567 81.1228 59.0536 75.8394L57.258 63.8033Z" fill="black"/>
<path d="M147.372 120.743C146.721 127.788 143.095 131.692 143.095 131.692C141.077 152.801 133.37 176.063 130.636 183.817C130.031 185.543 129.673 186.494 129.673 186.494C114.395 185.991 103.288 181.236 95.9898 176.561C88.5602 171.811 85.0547 167.152 85.0547 167.152C90.0279 162.195 99.349 152.771 99.349 142.36C99.349 131.949 91.1426 112.602 89.6648 102.684C89.3805 100.793 89.3483 98.8726 89.569 96.973C90.0107 93.0236 91.5478 89.2754 94.0076 86.1496L109.987 82.6273L113.083 81.943C117.865 84.2375 145.077 102.956 147.069 114.116C147.468 116.302 147.569 118.531 147.372 120.743Z" fill="#FBB54C"/>
<path d="M185.569 216.851C183.239 223.352 176.924 229.999 163.719 234.845C145.823 241.411 116.271 244.023 116.271 244.023L109.79 229.39C109.79 229.39 124.205 222.949 132.407 218.974C140.608 214.999 146.086 203.879 159.75 201.126C168.612 199.355 176.964 200.558 181.912 203.139C184.601 204.518 186.29 206.289 186.527 208.171C186.891 211.099 186.563 214.072 185.569 216.851Z" fill="#0F3C9C"/>
<path d="M24.9118 105.431C24.0392 110.267 16.9576 116.834 16.9576 116.834C16.3321 120.799 16.9576 128.236 16.9576 128.236H3.16258L2.41608 111.746C2.41608 111.746 -0.438747 77.9025 0.0555528 75.4318C0.549852 72.9612 0.675955 67.6225 0.675955 67.6225C1.37156 67.6081 2.0568 67.7923 2.65102 68.1533C3.24525 68.5143 3.72372 69.0372 4.03013 69.6604C4.03013 69.6604 6.64285 70.8378 7.88364 71.9599C8.25875 72.3376 8.54929 72.7903 8.73605 73.2883C8.73417 73.2999 8.73417 73.3118 8.73605 73.3235C9.10193 74.2818 9.35252 75.2801 9.48255 76.2973C10.1029 78.773 11.5909 79.6384 13.0839 83.7343C14.0968 86.7619 14.8444 89.8715 15.3183 93.0281C18.8188 96.7516 24.9118 105.431 24.9118 105.431Z" fill="#FFC8A8"/>
<path d="M116.272 244.023C116.272 244.023 104.57 247.867 103.954 248.732C103.521 249.341 101.004 257.201 99.546 261.845C99.546 261.845 98.5372 270.309 98.3607 272.165C98.1842 274.022 97.0543 279.879 97.0543 279.879C97.0543 279.879 94.6282 280.72 93.5236 277.746C93.5236 277.746 92.0105 278.752 90.7243 277.927C89.4381 277.102 88.4899 276.624 88.4899 276.624C88.4899 276.624 86.2554 276.251 86.1596 275.889C85.8602 275.343 85.4943 274.836 85.0701 274.379C85.0701 274.379 83.6427 274.007 83.2694 272.799L84.601 268.563C84.0008 266.163 83.0072 262.107 82.8357 260.743C82.5885 258.761 85.0701 247.726 85.0701 247.726C85.0701 247.726 83.0929 239.016 86.2806 236.299C86.5756 236.037 86.918 235.834 87.2894 235.7C91.8945 234.085 99.2232 233.687 99.2232 233.687L109.785 229.35C116.125 234.734 116.272 244.023 116.272 244.023Z" fill="#FFC8A8"/>
<path d="M102.33 174.659C102.144 174.774 101.933 174.842 101.715 174.855C86.5476 174.216 72.3894 190.721 72.3894 190.721C72.3894 190.721 67.5877 197.946 48.9052 206.375C30.2227 214.803 14.5463 219.019 18.0266 208.352C21.5068 197.685 25.668 180.556 19.2018 157.002C15.2373 142.516 10.375 134.128 9.94629 128.236H17.5878C17.3406 140.881 30.263 162.21 32.2553 176.098C34.2477 189.986 26.5356 206.339 26.5356 206.339C43.1804 203.366 65.3078 188.492 65.3078 188.492C68.0416 173.366 85.0647 167.167 85.0647 167.167L102.33 174.659Z" fill="#0B2E77"/>
<path d="M147.372 120.743C146.721 127.788 143.095 131.692 143.095 131.692C143.095 131.692 120.609 128.985 113.083 155.256C107.49 174.745 122.521 181.583 130.636 183.817C130.031 185.543 129.673 186.494 129.673 186.494C114.395 185.991 103.288 181.236 95.9898 176.561C88.5602 171.811 85.0547 167.152 85.0547 167.152C90.0279 162.195 99.349 152.771 99.349 142.36C99.349 131.949 91.1426 112.602 89.6648 102.684C89.3805 100.793 89.3483 98.8726 89.569 96.973C90.0107 93.0236 91.5478 89.2754 94.0076 86.1496L109.987 82.6273C107.384 86.9497 104.776 94.7288 109.336 105.437C115.676 120.316 136.633 123.405 147.372 120.743Z" fill="#FFA216"/>
<path d="M141.491 18.5271C141.44 27.207 140.855 41.0797 138.596 60.6232C138.535 61.1264 138.48 61.6296 138.419 62.1026C134.096 97.5969 124.094 113.578 113.063 115.847C104.842 117.528 99.0819 112.375 98.5775 104.938C98.3959 102.166 100.015 97.9492 102.108 93.7426C104.652 88.8287 107.501 84.0778 110.637 79.5177L123.867 21.4154C123.807 21.4456 123.756 21.4607 123.696 21.4858C122.506 21.9387 121.235 22.3815 119.893 22.7991C107.788 26.5881 74.9217 32.2489 63.2351 34.1911C62.6298 35.1975 61.5958 36.863 59.9162 39.399C56.7738 44.1289 49.8738 46.3429 49.8738 46.3429C49.8062 45.9075 49.8368 45.4625 49.9633 45.0403C50.0898 44.6182 50.3091 44.2295 50.6052 43.9025C51.614 42.7754 54.9984 39.5802 55.2103 39.3739L47.9471 42.2823C45.931 43.3074 43.8423 44.1836 41.6977 44.9038C40.1121 45.4134 38.4853 45.7855 36.8354 46.0159C36.4471 46.0561 36.2352 46.0662 36.2352 46.0662C36.2352 46.0662 36.331 44.9994 38.5403 43.5503L38.7925 43.3943C37.2066 44.0459 35.5566 44.5299 33.8696 44.8384C33.8696 44.8384 33.8696 43.6459 36.1394 41.8495C37.1274 41.1257 38.1527 40.4538 39.2111 39.8368C37.7732 40.5387 36.2629 41.082 34.7069 41.4571C34.7069 41.4571 34.6464 40.3903 36.6135 38.6392C37.5983 37.8232 38.6289 37.0638 39.7003 36.3649C38.5123 36.9785 37.2673 37.4756 35.983 37.8493C35.983 37.8493 35.8872 36.868 37.6273 35.1824C39.1058 33.9422 40.6736 32.8121 42.3181 31.801C44.6115 30.3069 47.1109 29.1542 49.7376 28.3794L57.2581 26.1755L60.9754 25.0785C60.9754 25.0785 84.495 12.1417 103.203 7.17535C113.074 4.56384 121.361 3.799 127.716 4.02543C128.63 4.05742 129.54 4.18048 130.43 4.39276C133.086 5.02623 135.507 6.39914 137.412 8.35175C139.316 10.3044 140.626 12.7564 141.188 15.4225C141.405 16.4429 141.506 17.4842 141.491 18.5271Z" fill="#FFC8A8"/>
<path d="M138.464 62.1026C134.142 97.5969 124.14 113.578 113.109 115.847C104.887 117.528 99.1272 112.375 98.6228 104.938C98.4412 102.166 100.06 97.9492 102.154 93.7426C103.48 95.6748 106.496 97.5617 113.109 97.924C123.207 98.4876 132.81 77.4345 138.464 62.1026Z" fill="#EDAD91"/>
<path d="M126.934 15.7345C126.46 17.5057 124.089 21.1386 124.089 21.1386C123.968 21.2653 123.837 21.3814 123.696 21.4858C122.505 21.9387 121.234 22.3815 119.893 22.7991C107.787 26.5881 74.9216 32.2489 63.235 34.1911C62.6297 35.1975 61.5957 36.863 59.9161 39.3991C56.7737 44.129 49.8737 46.343 49.8737 46.343C49.8061 45.9075 49.8367 45.4625 49.9632 45.0404C50.0897 44.6182 50.309 44.2295 50.6051 43.9025C51.6139 42.7754 54.9983 39.5802 55.2101 39.3739L47.947 42.2823C45.9309 43.3074 43.8422 44.1836 41.6976 44.9039C40.1119 45.4134 38.4851 45.7855 36.8353 46.0159C36.5831 45.875 36.457 45.7895 36.457 45.7895C36.457 45.7895 50.5244 40.7576 55.7448 35.907C59.3613 32.5457 62.1102 31.1217 66.5185 31.2526C72.6317 31.4488 126.934 15.7345 126.934 15.7345Z" fill="#EDAD91"/>
<path d="M24.9117 105.431C24.0391 110.267 16.9575 116.834 16.9575 116.834C16.332 120.799 16.9575 128.236 16.9575 128.236H9.93641C9.6877 125.227 9.79096 122.199 10.2441 119.214C11.2529 112.416 17.9511 101.708 12.4533 95.0156C6.95549 88.3233 3.28859 77.6609 4.80175 73.3235C6.20899 69.2075 8.52412 72.8958 8.75614 73.2883C8.75426 73.3 8.75426 73.3119 8.75614 73.3235C9.12201 74.2818 9.3726 75.2801 9.50264 76.2973C10.123 78.773 11.611 79.6384 13.104 83.7343C14.1168 86.7619 14.8645 89.8715 15.3384 93.0281C18.8187 96.7516 24.9117 105.431 24.9117 105.431Z" fill="#EDAD91"/>
<path d="M93.7052 81.9983C93.7052 81.9983 89.4381 89.848 82.4473 90.5927C82.4473 90.5927 86.7799 91.1965 90.0433 88.3636C93.3067 85.5307 93.8969 83.7695 93.8969 83.7695L93.7052 81.9983Z" fill="black"/>
<path d="M83.8898 46.343C83.2498 46.1117 82.5484 46.1136 81.9097 46.3484C81.271 46.5832 80.736 47.0358 80.3995 47.6261C79.0477 49.7646 81.5142 54.6454 81.5142 54.6454C81.5142 54.6454 79.9909 48.3859 83.8898 46.343Z" fill="black"/>
<path d="M85.2769 53.6391C85.7881 52.6927 86.1537 51.6749 86.3613 50.62C86.5453 49.8152 86.5453 48.9793 86.3613 48.1745C86.6746 47.7747 86.9356 47.3368 87.138 46.8713C87.2944 46.3681 88.0913 47.3191 87.2641 48.7331C87.2641 48.7431 88.2275 52.3107 85.2769 53.6391Z" fill="black"/>
<path d="M101.644 48.3859C101.644 48.3859 101.326 49.1759 99.9545 51.9081L98.5825 54.6454C98.5825 54.6454 101.064 53.6391 101.644 51.5157C102.224 49.3922 101.644 48.3859 101.644 48.3859Z" fill="#C15D3A"/>
<path d="M76.248 69.8012C76.248 69.8012 76.8079 68.0804 80.1167 67.708C83.4255 67.3357 83.7987 67.708 83.7987 67.708C83.7987 67.708 82.7244 69.2176 83.6121 70.1283C84.4998 71.0391 87.0167 69.6604 87.0167 69.6604C87.0167 69.6604 87.0167 72.0354 84.8226 72.7297C82.6285 73.4241 81.2919 71.5221 81.9325 69.7107C81.9325 69.7107 78.7195 68.7798 76.248 69.8012Z" fill="#EDAD91"/>
<path d="M97.0495 279.889C97.0495 279.889 94.6234 280.73 93.5187 277.756C93.5187 277.756 92.0056 278.762 90.7194 277.937C89.4332 277.112 88.485 276.634 88.485 276.634C88.485 276.634 86.2505 276.261 86.1547 275.899C85.8553 275.353 85.4894 274.846 85.0652 274.389C85.0652 274.389 83.6378 274.017 83.2645 272.81L84.5961 268.573C83.9959 266.173 83.0023 262.117 82.8308 260.753C82.5836 258.771 85.0652 247.736 85.0652 247.736C85.0652 247.736 83.088 239.026 86.2757 236.309C87.3602 236.178 89.2062 236.847 91.9047 240.666C96.6258 247.364 94.6334 248.355 93.7659 254.187C93.0775 259.047 93.4754 263.999 94.931 268.688C95.9902 272.201 94.008 275.829 97.0495 279.889Z" fill="#EDAD91"/>
<path d="M66.2969 58.3941C66.2969 58.3941 73.9989 57.891 77.7868 61.4786C77.7868 61.4786 74.5638 55.058 66.2969 58.3941Z" fill="#4F4F4F"/>
<path d="M38.53 43.5704L44.8399 40.1387C44.8399 40.1387 36.351 42.3225 33.8594 44.8586C33.8594 44.8586 37.3447 44.2195 38.53 43.5704Z" fill="#EDAD91"/>
<path d="M39.2011 39.8419L42.2274 38.2015C42.2274 38.2015 37.0675 39.1475 34.6616 41.4621C34.6969 41.4621 37.4105 41.1954 39.2011 39.8419Z" fill="#EDAD91"/>
<path d="M39.6905 36.3699L41.9653 34.9509C39.7485 35.3815 37.6829 36.3823 35.9731 37.8543C37.2719 37.5235 38.5216 37.0245 39.6905 36.3699Z" fill="#EDAD91"/>
<path d="M141.188 15.4225C140.371 15.6713 139.521 15.7968 138.666 15.7948C137.524 15.7942 136.394 15.5691 135.339 15.1326C134.284 14.696 133.326 14.0565 132.519 13.2505C131.712 12.4445 131.072 11.4878 130.636 10.4351C130.199 9.38234 129.975 8.25417 129.976 7.11497C129.975 6.18959 130.125 5.27025 130.419 4.39277C133.077 5.02456 135.501 6.39672 137.407 8.34945C139.314 10.3022 140.625 12.7551 141.188 15.4225Z" fill="#EDAD91"/>
<path d="M91.6725 61.5843C91.6725 62.2153 91.485 62.832 91.1336 63.3567C90.7822 63.8813 90.2828 64.2902 89.6984 64.5316C89.1141 64.7731 88.4711 64.8363 87.8508 64.7132C87.2305 64.5901 86.6607 64.2862 86.2135 63.8401C85.7663 63.3939 85.4617 62.8255 85.3383 62.2067C85.2149 61.5878 85.2782 60.9464 85.5203 60.3635C85.7623 59.7805 86.1722 59.2823 86.6981 58.9318C87.2239 58.5812 87.8422 58.3941 88.4747 58.3941C89.3228 58.3941 90.1362 58.7302 90.7359 59.3285C91.3356 59.9268 91.6725 60.7382 91.6725 61.5843Z" fill="#FFB497"/>
</g>
<defs>
<clipPath id="clip0">
<rect width="242" height="280" fill="white"/>
</clipPath>
</defs>
</svg>
