<svg width="414" height="477" viewBox="0 0 414 477" fill="none" xmlns="http://www.w3.org/2000/svg">
<circle cx="207.5" cy="358.5" r="358.5" fill="#FF9B00"/>
<path d="M214.394 54.7287C214.394 49.3817 218.746 45.0301 224.095 45.0301C229.442 45.0301 233.793 49.3806 233.793 54.7287C233.793 56.2681 232.546 57.5154 231.007 57.5154C229.467 57.5154 228.22 56.2681 228.22 54.7287C228.22 52.4537 226.37 50.6034 224.095 50.6034C221.819 50.6034 219.967 52.4537 219.967 54.7287C219.967 56.2681 218.72 57.5154 217.181 57.5154C215.641 57.5154 214.394 56.267 214.394 54.7287ZM183.493 54.6986C183.493 49.3516 187.845 45 193.194 45C198.541 45 202.892 49.3505 202.892 54.6986C202.892 56.238 201.645 57.4853 200.106 57.4853C198.566 57.4853 197.319 56.238 197.319 54.6986C197.319 52.4236 195.469 50.5733 193.194 50.5733C190.918 50.5733 189.066 52.4236 189.066 54.6986C189.066 56.238 187.819 57.4853 186.28 57.4853C184.74 57.4853 183.493 56.238 183.493 54.6986ZM182.257 79.6123C181.548 77.9069 182.356 75.9496 184.063 75.2418C184.482 75.0679 184.916 74.9854 185.345 74.9854C186.655 74.9854 187.899 75.7612 188.433 77.0486C191.528 84.5001 199.195 89.3143 207.965 89.3143C216.536 89.3143 224.158 84.4979 227.383 77.0408C228.116 75.3454 230.085 74.5629 231.778 75.2986C233.473 76.032 234.253 77.9994 233.52 79.6948C229.239 89.5996 219.207 96 207.965 96C196.483 96.0011 186.392 89.5684 182.257 79.6123Z" fill="black"/>
</svg>
