<svg width="109" height="40" viewBox="0 0 109 40" fill="none" xmlns="http://www.w3.org/2000/svg">
<path d="M82.7693 6.53845V33.4615M90.8462 15.2885V24.7115V15.2885ZM98.9232 11.25V28.75V11.25ZM74.6924 15.2885V24.7115V15.2885ZM107 15.9615V24.0385V15.9615Z" stroke="#C5C5C5" stroke-width="4" stroke-linecap="round"/>
<path d="M66.6155 2.05127V37.9487M74.6924 13.7179V26.282V13.7179ZM82.7693 8.33332V31.6667V8.33332ZM58.5386 13.7179V26.282V13.7179ZM90.8463 14.6154V25.3846V14.6154Z" stroke="#C5C5C5" stroke-width="4" stroke-linecap="round"/>
<path d="M50.4617 2.05127V37.9487M58.5386 13.7179V26.282V13.7179ZM66.6155 8.33332V31.6667V8.33332ZM42.3848 13.7179V26.282V13.7179ZM74.6925 14.6154V25.3846V14.6154Z" stroke="#C5C5C5" stroke-width="4" stroke-linecap="round"/>
<path d="M34.3079 2.05127V37.9487M42.3848 13.7179V26.282V13.7179ZM50.4617 8.33332V31.6667V8.33332ZM26.231 13.7179V26.282V13.7179ZM58.5386 14.6154V25.3846V14.6154Z" stroke="#C5C5C5" stroke-width="4" stroke-linecap="round"/>
<path d="M26.2307 6.53845V33.4615M18.1538 15.2885V24.7115V15.2885ZM10.0768 11.25V28.75V11.25ZM34.3076 15.2885V24.7115V15.2885ZM1.99992 15.9615V24.0385V15.9615Z" stroke="#C5C5C5" stroke-width="4" stroke-linecap="round"/>
</svg>
