<svg width="32" height="30" viewBox="0 0 32 30" fill="none" xmlns="http://www.w3.org/2000/svg">
<path d="M22.5117 20.625C22.3008 18.724 21.4502 16.9511 20.0995 15.5969C18.7487 14.2428 16.978 13.3877 15.0775 13.1719C13.1771 12.9562 11.2597 13.3925 9.63977 14.4094C8.01984 15.4263 6.79347 16.9634 6.16173 18.7687C4.71412 18.8872 3.36845 19.5611 2.40642 20.6492C1.44438 21.7374 0.940544 23.1555 1.00039 24.6067C1.06023 26.058 1.6791 27.4298 2.72747 28.4351C3.77583 29.4403 5.17241 30.0011 6.62486 30H22.5624C23.8056 30 24.9978 29.5061 25.8769 28.6271C26.756 27.748 27.2499 26.5557 27.2499 25.3125C27.2499 24.0693 26.756 22.877 25.8769 21.9979C24.9978 21.1189 23.8056 20.625 22.5624 20.625H22.5117Z" fill="black"/>
<path d="M22.1612 3.33375C22.269 3.17248 22.3241 2.98176 22.3189 2.78786C22.3137 2.59397 22.2485 2.40645 22.1323 2.25116C22.0161 2.09587 21.8546 1.98044 21.67 1.9208C21.4855 1.86115 21.2869 1.86022 21.1018 1.91812C19.1605 2.52611 17.4968 3.80145 16.4056 5.51833C15.3143 7.23522 14.8657 9.28288 15.1393 11.2987C15.81 11.364 16.4726 11.4952 17.1175 11.6906C16.8279 10.4567 16.8914 9.1662 17.3005 7.9666C17.7097 6.76701 18.448 5.70672 19.4312 4.90687C19.1065 6.15904 19.068 7.46827 19.3186 8.73735C19.5693 10.0064 20.1026 11.2027 20.879 12.2374C21.6553 13.2721 22.6548 14.1186 23.8032 14.7141C24.9516 15.3095 26.2194 15.6386 27.5125 15.6769C26.2837 16.5309 24.8046 16.9493 23.3106 16.8656C23.6143 17.46 23.8637 18.0881 24.0493 18.7406C25.4031 18.683 26.7241 18.3065 27.9049 17.6418C29.0856 16.9772 30.0928 16.0431 30.8443 14.9156C30.9521 14.7544 31.0072 14.5636 31.002 14.3697C30.9968 14.1758 30.9317 13.9883 30.8154 13.833C30.6992 13.6777 30.5377 13.5623 30.3532 13.5027C30.1686 13.443 29.9701 13.4421 29.785 13.5C28.455 13.9174 27.0284 13.9121 25.7016 13.4846C24.3748 13.0572 23.2133 12.2288 22.3772 11.1135C21.5411 9.99822 21.0714 8.65105 21.0331 7.25767C20.9947 5.86429 21.3895 4.49332 22.1631 3.33375H22.1612Z" fill="black"/>
</svg>
