<svg width="34" height="34" viewBox="0 0 34 34" fill="none" xmlns="http://www.w3.org/2000/svg">
<path d="M17 2.83334C15.599 2.83334 14.2296 3.24877 13.0647 4.02709C11.8999 4.80542 10.992 5.91168 10.4559 7.20599C9.91973 8.5003 9.77946 9.92453 10.0528 11.2986C10.3261 12.6726 11.0007 13.9347 11.9913 14.9253C12.9819 15.916 14.2441 16.5906 15.6181 16.8639C16.9921 17.1372 18.4164 16.9969 19.7107 16.4608C21.005 15.9247 22.1113 15.0168 22.8896 13.852C23.6679 12.6871 24.0833 11.3176 24.0833 9.91667C24.0833 8.03805 23.3371 6.23638 22.0087 4.908C20.6803 3.57961 18.8786 2.83334 17 2.83334V2.83334ZM17 14.1667C16.1594 14.1667 15.3377 13.9174 14.6388 13.4504C13.9399 12.9834 13.3952 12.3197 13.0735 11.5431C12.7518 10.7665 12.6677 9.91195 12.8317 9.08754C12.9956 8.26312 13.4004 7.50584 13.9948 6.91147C14.5892 6.31709 15.3464 5.91232 16.1709 5.74833C16.9953 5.58434 17.8498 5.66851 18.6264 5.99018C19.403 6.31185 20.0667 6.85659 20.5337 7.5555C21.0007 8.2544 21.25 9.0761 21.25 9.91667C21.25 11.0438 20.8022 12.1248 20.0052 12.9219C19.2082 13.7189 18.1272 14.1667 17 14.1667V14.1667ZM29.75 29.75V28.3333C29.75 25.7033 28.7052 23.1809 26.8455 21.3212C24.9857 19.4615 22.4634 18.4167 19.8333 18.4167H14.1667C11.5366 18.4167 9.01426 19.4615 7.15452 21.3212C5.29479 23.1809 4.25 25.7033 4.25 28.3333V29.75H7.08333V28.3333C7.08333 26.4547 7.82961 24.653 9.15799 23.3247C10.4864 21.9963 12.288 21.25 14.1667 21.25H19.8333C21.7119 21.25 23.5136 21.9963 24.842 23.3247C26.1704 24.653 26.9167 26.4547 26.9167 28.3333V29.75H29.75Z" fill="black"/>
</svg>
