<svg width="30" height="30" viewBox="0 0 30 30" fill="none" xmlns="http://www.w3.org/2000/svg">
<path d="M23.75 13.75H8.925L13.4625 8.3C13.6747 8.04473 13.7768 7.71563 13.7463 7.3851C13.7158 7.05456 13.5553 6.74967 13.3 6.5375C13.0447 6.32533 12.7156 6.22325 12.3851 6.25373C12.0546 6.2842 11.7497 6.44473 11.5375 6.7L5.2875 14.2C5.24545 14.2597 5.20785 14.3223 5.175 14.3875C5.175 14.45 5.175 14.4875 5.0875 14.55C5.03084 14.6933 5.00118 14.8459 5 15C5.00118 15.1541 5.03084 15.3067 5.0875 15.45C5.0875 15.5125 5.0875 15.55 5.175 15.6125C5.20785 15.6777 5.24545 15.7403 5.2875 15.8L11.5375 23.3C11.655 23.4411 11.8022 23.5546 11.9686 23.6324C12.1349 23.7101 12.3164 23.7503 12.5 23.75C12.7921 23.7506 13.0751 23.6489 13.3 23.4625C13.4266 23.3576 13.5312 23.2287 13.6079 23.0833C13.6846 22.9378 13.7318 22.7787 13.7469 22.615C13.762 22.4512 13.7447 22.2862 13.6959 22.1291C13.6471 21.9721 13.5678 21.8263 13.4625 21.7L8.925 16.25H23.75C24.0815 16.25 24.3995 16.1183 24.6339 15.8839C24.8683 15.6495 25 15.3315 25 15C25 14.6685 24.8683 14.3505 24.6339 14.1161C24.3995 13.8817 24.0815 13.75 23.75 13.75Z" fill="black"/>
</svg>
