<svg width="36" height="36" viewBox="0 0 36 36" fill="none" xmlns="http://www.w3.org/2000/svg">
<path d="M16.4542 2.83948C16.872 2.44452 17.4251 2.22446 18 2.22446C18.5749 2.22446 19.128 2.44452 19.5457 2.83948L30.4447 13.14C30.7785 13.4558 31.0442 13.8364 31.2256 14.2585C31.4071 14.6806 31.5005 15.1353 31.5 15.5947L31.5 28.1272C31.4994 29.0219 31.1436 29.8798 30.5107 30.5123C29.8778 31.1447 29.0197 31.5 28.125 31.5L24.75 31.5C23.8549 31.5 22.9964 31.1444 22.3635 30.5115C21.7306 29.8785 21.375 29.0201 21.375 28.125L21.375 22.5C21.375 22.2016 21.2565 21.9155 21.0455 21.7045C20.8345 21.4935 20.5484 21.375 20.25 21.375L15.75 21.375C15.4516 21.375 15.1655 21.4935 14.9545 21.7045C14.7435 21.9155 14.625 22.2016 14.625 22.5L14.625 28.125C14.625 29.0201 14.2694 29.8785 13.6365 30.5115C13.0035 31.1444 12.1451 31.5 11.25 31.5L7.875 31.5C6.97989 31.5 6.12145 31.1444 5.48851 30.5115C4.85558 29.8785 4.5 29.0201 4.5 28.125L4.5 15.5925C4.50014 15.1332 4.594 14.6789 4.77583 14.2572C4.95767 13.8355 5.22365 13.4553 5.5575 13.14L16.4542 2.83498L16.4542 2.83948Z" fill="black"/>
</svg>
