<svg width="22" height="22" viewBox="0 0 22 22" fill="none" xmlns="http://www.w3.org/2000/svg">
<path d="M3.09375 2.92325V5.27587C5.12187 3.10337 8.0245 2.01919 11.0124 2.06387C15.0975 2.12437 18.3672 4.31062 20.4889 7.61475C20.5512 7.70972 20.5941 7.81611 20.6151 7.92777C20.6361 8.03943 20.6347 8.15414 20.611 8.26527C20.5874 8.37639 20.5419 8.48172 20.4773 8.57516C20.4127 8.66861 20.3302 8.74831 20.2346 8.80967C20.1389 8.87102 20.0321 8.9128 19.9202 8.9326C19.8084 8.9524 19.6937 8.94982 19.5828 8.92501C19.4719 8.9002 19.3671 8.85365 19.2743 8.78806C19.1816 8.72246 19.1027 8.63913 19.0424 8.54287C17.1772 5.63818 14.4011 3.8335 10.9869 3.78194C8.228 3.74069 5.64644 4.81525 3.97994 6.87569H6.70312C6.93104 6.87569 7.14963 6.96623 7.31079 7.12739C7.47196 7.28855 7.5625 7.50714 7.5625 7.73506C7.5625 7.96298 7.47196 8.18157 7.31079 8.34273C7.14963 8.50389 6.93104 8.59444 6.70312 8.59444H2.23437C1.76 8.59444 1.375 8.20944 1.375 7.73506V2.92256C1.375 2.69464 1.46554 2.47605 1.62671 2.31489C1.78787 2.15373 2.00645 2.06319 2.23437 2.06319C2.4623 2.06319 2.68088 2.15373 2.84204 2.31489C3.00321 2.47605 3.09375 2.69464 3.09375 2.92256V2.92325ZM8.58412 10.3806C8.90244 10.5153 9.10937 10.8274 9.10937 11.1726V18.9062C9.10937 19.1342 9.01883 19.3528 8.85767 19.5139C8.69651 19.6751 8.47792 19.7656 8.25 19.7656C8.02208 19.7656 7.80349 19.6751 7.64233 19.5139C7.48117 19.3528 7.39062 19.1342 7.39062 18.9062V13.0831C7.09706 13.2942 6.74162 13.5266 6.28581 13.8002C6.09035 13.9174 5.85631 13.9522 5.6352 13.8969C5.41408 13.8416 5.22399 13.7007 5.10675 13.5052C4.98951 13.3098 4.95472 13.0757 5.01003 12.8546C5.06534 12.6335 5.20622 12.4434 5.40169 12.3262C6.12081 11.8944 6.52437 11.6016 6.81519 11.3561C7.02831 11.176 7.18025 11.0241 7.37206 10.8329C7.45456 10.7504 7.54462 10.6597 7.6505 10.5572C7.7715 10.4393 7.92461 10.3596 8.09067 10.3281C8.25673 10.2967 8.42837 10.3149 8.58412 10.3806V10.3806ZM11.6524 11.8931C12.2286 10.9189 13.1862 10.3125 14.5062 10.3125C15.8283 10.3125 16.7846 10.9175 17.3607 11.8924C17.8977 12.8012 18.0723 13.9707 18.0723 15.1243C18.0723 16.2793 17.8977 17.4481 17.3607 18.3569C16.7846 19.3325 15.8276 19.9375 14.5062 19.9375C13.1849 19.9375 12.2286 19.3325 11.6531 18.3576C11.1155 17.4487 10.9409 16.2793 10.9409 15.125C10.9409 13.9714 11.1155 12.8012 11.6524 11.8931ZM13.1319 12.7676C12.8239 13.2894 12.6596 14.0965 12.6596 15.1257C12.6596 16.1542 12.8239 16.9613 13.1319 17.4838C13.4021 17.9396 13.7988 18.2194 14.5069 18.2194C15.2151 18.2194 15.6111 17.9396 15.8812 17.4838C16.1892 16.9613 16.3536 16.1542 16.3536 15.1257C16.3536 14.0965 16.1892 13.2894 15.8812 12.7676C15.6111 12.3111 15.2144 12.0319 14.5062 12.0319C13.7981 12.0319 13.4014 12.3111 13.1319 12.7676Z" fill="black"/>
</svg>
