<svg width="22" height="22" viewBox="0 0 22 22" fill="none" xmlns="http://www.w3.org/2000/svg">
<path d="M11.0132 3.78195C13.7722 3.7407 16.3537 4.81526 18.0202 6.8757H15.297C15.0691 6.8757 14.8505 6.96624 14.6894 7.12741C14.5282 7.28857 14.4377 7.50716 14.4377 7.73508C14.4377 7.963 14.5282 8.18158 14.6894 8.34275C14.8505 8.50391 15.0691 8.59445 15.297 8.59445H19.7658C20.2402 8.59445 20.6252 8.20945 20.6252 7.73508V2.92258C20.6252 2.69466 20.5346 2.47607 20.3735 2.31491C20.2123 2.15374 19.9937 2.0632 19.7658 2.0632C19.5379 2.0632 19.3193 2.15374 19.1581 2.31491C18.997 2.47607 18.9064 2.69466 18.9064 2.92258V5.27589C16.8783 3.10339 13.9757 2.0192 10.9878 2.06389C6.90267 2.12439 3.63292 4.31064 1.51061 7.61476C1.44826 7.70974 1.40536 7.81613 1.38439 7.92779C1.36342 8.03945 1.3648 8.15416 1.38845 8.26528C1.4121 8.3764 1.45755 8.48173 1.52217 8.57518C1.58679 8.66862 1.6693 8.74833 1.76492 8.80968C1.86054 8.87104 1.96737 8.91282 2.07925 8.93262C2.19112 8.95242 2.30581 8.94984 2.41668 8.92503C2.52755 8.90021 2.63239 8.85367 2.72516 8.78807C2.81792 8.72248 2.89676 8.63915 2.95711 8.54289C4.8223 5.6382 7.59842 3.83351 11.0125 3.78195H11.0132ZM14.5064 10.3132C13.185 10.3132 12.2287 10.9182 11.6533 11.8931C11.1157 12.802 10.941 13.9714 10.941 15.125C10.941 16.28 11.1157 17.4488 11.6526 18.3576C12.2287 19.3325 13.1864 19.9375 14.5064 19.9375C15.8285 19.9375 16.7848 19.3325 17.3609 18.3576C17.8979 17.4488 18.0725 16.2793 18.0725 15.125C18.0725 13.9714 17.8979 12.802 17.3609 11.8931C16.7848 10.9189 15.8278 10.3132 14.5064 10.3132V10.3132ZM12.6598 15.1257C12.6598 14.0965 12.8241 13.2894 13.1321 12.7676C13.4023 12.3111 13.799 12.032 14.5071 12.032C15.2152 12.032 15.6112 12.3111 15.8814 12.7676C16.1894 13.2894 16.3537 14.0965 16.3537 15.1257C16.3537 16.1542 16.1894 16.9613 15.8814 17.4838C15.6112 17.9396 15.2145 18.2195 14.5064 18.2195C13.7983 18.2195 13.4016 17.9396 13.1321 17.4838C12.8241 16.9613 12.6598 16.1542 12.6598 15.1257ZM9.10955 11.1726C9.10946 11.0036 9.05958 10.8384 8.96613 10.6977C8.87268 10.5569 8.73982 10.4468 8.58414 10.3812C8.42847 10.3155 8.25689 10.2972 8.09086 10.3285C7.92484 10.3598 7.77173 10.4394 7.65067 10.5573C7.5448 10.6604 7.45473 10.7498 7.37223 10.8323C7.18042 11.0241 7.02848 11.176 6.81536 11.3561C6.52455 11.6016 6.12098 11.8945 5.40186 12.3262C5.30507 12.3843 5.22067 12.4608 5.15347 12.5515C5.08627 12.6421 5.03759 12.7452 5.0102 12.8546C4.98281 12.9641 4.97726 13.0779 4.99385 13.1896C5.01045 13.3012 5.04887 13.4085 5.10692 13.5053C5.16497 13.602 5.24152 13.6864 5.33219 13.7537C5.42286 13.8209 5.52588 13.8695 5.63537 13.8969C5.74486 13.9243 5.85866 13.9299 5.9703 13.9133C6.08193 13.8967 6.1892 13.8583 6.28598 13.8002C6.7418 13.5266 7.09723 13.2942 7.3908 13.0831V18.9063C7.3908 19.1342 7.48134 19.3528 7.6425 19.5139C7.80366 19.6751 8.02225 19.7656 8.25017 19.7656C8.47809 19.7656 8.69668 19.6751 8.85784 19.5139C9.019 19.3528 9.10955 19.1342 9.10955 18.9063V11.1719V11.1726Z" fill="black"/>
</svg>
